<svg width="92" height="147" viewBox="0 0 92 147" fill="none" xmlns="http://www.w3.org/2000/svg">
<g clip-path="url(#clip0)">
<path d="M92 46.3327C92 70.7252 65.6045 147 46 147C20.5949 147 0 71.9216 0 46.3327C0 20.7439 20.5949 0 46 0C71.4051 0 92 20.7439 92 46.3327Z" fill="#829DFF"/>
<path d="M92 46.3327C64 123 3.12985 29.5 46 147C20.5949 147 0 71.9216 0 46.3327C0 20.7439 20.5949 0 46 0C71.4051 0 92 20.7439 92 46.3327Z" fill="white"/>
<path d="M46.374 65.25C58.7667 65.25 68.813 55.3443 68.813 43.125C68.813 30.9057 58.7667 21 46.374 21C33.9813 21 23.935 30.9057 23.935 43.125C23.935 55.3443 33.9813 65.25 46.374 65.25Z" fill="#829DFF"/>
<path d="M89.7561 46.3328C89.7561 52.1311 88.1689 61.243 85.3992 71.7792C82.6437 82.2652 78.7625 93.993 74.2757 104.959C69.7812 115.945 64.7162 126.073 59.6168 133.415C57.0648 137.089 54.5612 139.982 52.1835 141.935C49.7855 143.903 47.7212 144.75 46 144.75C40.7725 144.75 35.3062 140.84 29.8969 133.528C24.5675 126.325 19.6982 116.356 15.5707 105.463C7.30235 83.643 2.2439 58.7589 2.2439 46.3328C2.2439 21.977 21.8436 2.25 46 2.25C70.1564 2.25 89.7561 21.977 89.7561 46.3328Z" stroke="#829DFF" stroke-width="5"/>
</g>
<defs>
<clipPath id="clip0">
<rect width="92" height="147" fill="white"/>
</clipPath>
</defs>
</svg>
