<svg width="92" height="147" viewBox="0 0 92 147" fill="none" xmlns="http://www.w3.org/2000/svg">
<path d="M92 46.3327C92 70.7252 65.6045 147 46 147C20.5949 147 0 71.9216 0 46.3327C0 20.7439 20.5949 0 46 0C71.4051 0 92 20.7439 92 46.3327Z" fill="#829DFF"/>
<path d="M92 46.3327C64 123 3.12985 29.5 46 147C20.5949 147 0 71.9216 0 46.3327C0 20.7439 20.5949 0 46 0C71.4051 0 92 20.7439 92 46.3327Z" fill="white"/>
<path d="M46.374 65.25C58.7667 65.25 68.813 55.3443 68.813 43.125C68.813 30.9057 58.7667 21 46.374 21C33.9813 21 23.935 30.9057 23.935 43.125C23.935 55.3443 33.9813 65.25 46.374 65.25Z" fill="#829DFF"/>
</svg>
